# xmcd
#
# Track frame offsets: 
#        150
#        15111
#        22392
#        33038
#        43744
#        51788
#        65463
#        75166
#        86280
#        102037
#        110547
#        119838
#        131002
#        140717
#        151709
#        165359
#        176805
#        187470
#        195611
#        202800
#        213995
#        229060
#        244960
#        254119
#        263834
#        272710
#        286047
#        299194
#        309038
#        319537
#        333690
#        345449
#
# Disc length: 4798 seconds
#
# Revision: 1
# Processed by: cddbd v1.5.2PL0 Copyright (c) Steve Scherf et al.
# Submitted via: ExactAudioCopy v1.0b1
#
DISCID=d012bc20
DTITLE=Gene Clark - Gene Clark With The Gosdin Brothers (2013 Blue-Spe
DTITLE=c CD Japan)
DYEAR=1966
DGENRE=Country
TTITLE0=Echoes (mono)
TTITLE1=Think I'm Gonna Feel Better (mono)
TTITLE2=Tried So Hard (mono)
TTITLE3=Is Yours Is Mine (mono)
TTITLE4=Keep On Pushin' (mono)
TTITLE5=I Found You (mono)
TTITLE6=So You Say You Lost Your Baby (mono)
TTITLE7=Elevator Operator (mono)
TTITLE8=The Same One (mono)
TTITLE9=Couldn't Believe Her (mono)
TTITLE10=Needing Someone (mono)
TTITLE11=So You Say You Lost Your Baby (acoustic mono version)
TTITLE12=In Yours Is Mine (acoustic mono version)
TTITLE13=Tried So Hard (alt. mono mix)
TTITLE14=Only Colombe (mono)
TTITLE15=The French Girl (mono)
TTITLE16=Tried So Hard (stereo)
TTITLE17=Keep On Pushin' (stereo)
TTITLE18=Think I'm Gonna Feel Better (stereo)
TTITLE19=Is Yours Is Mine (stereo)
TTITLE20=Echoes (stereo)
TTITLE21=The Same One (stereo)
TTITLE22=Needing Someone (stereo)
TTITLE23=So You Say You Lost Your Baby (stereo)
TTITLE24=Couldn't Believe Her (stereo)
TTITLE25=I Found You (stereo)
TTITLE26=Elevator Operator (alt) (stereo)
TTITLE27=Couldn't Believe Her (stereo remix)
TTITLE28=Tried So Hard (alt) (stereo)
TTITLE29=Only Colombe (stereo remix)
TTITLE30=The French Girl (stereo remix)
TTITLE31=So You Say You Lost Your Baby (acoustic demo) (mono)
EXTD=
EXTT0=
EXTT1=
EXTT2=
EXTT3=
EXTT4=
EXTT5=
EXTT6=
EXTT7=
EXTT8=
EXTT9=
EXTT10=
EXTT11=
EXTT12=
EXTT13=
EXTT14=
EXTT15=
EXTT16=
EXTT17=
EXTT18=
EXTT19=
EXTT20=
EXTT21=
EXTT22=
EXTT23=
EXTT24=
EXTT25=
EXTT26=
EXTT27=
EXTT28=
EXTT29=
EXTT30=
EXTT31=
PLAYORDER=
